<svg width="30" height="24" viewBox="0 0 30 24" fill="none" xmlns="http://www.w3.org/2000/svg">
<g clip-path="url(#clip0_14_8652)">
<path d="M15.9375 17.5C15.9375 20.95 18.7375 23.75 22.1875 23.75C25.6375 23.75 28.4375 20.95 28.4375 17.5C28.4375 14.8062 26.7312 12.5125 24.3375 11.6375L30 0.3125H23.75L16.1438 15.9375C16.0125 16.4375 15.9375 16.9563 15.9375 17.5Z" fill="#555555"/>
<path d="M0.3125 17.5C0.3125 20.95 3.1125 23.75 6.5625 23.75C10.0125 23.75 12.8125 20.95 12.8125 17.5C12.8125 14.8062 11.1062 12.5125 8.7125 11.6375L14.375 0.3125H8.125L0.518751 15.9375C0.387501 16.4375 0.3125 16.9563 0.3125 17.5Z" fill="#555555"/>
</g>
<defs>
<clipPath id="clip0_14_8652">
<rect width="30" height="24" fill="white" transform="matrix(-1 0 0 -1 30 24)"/>
</clipPath>
</defs>
</svg>
