<svg width="30" height="24" viewBox="0 0 30 24" fill="none" xmlns="http://www.w3.org/2000/svg">
<g clip-path="url(#clip0_14_8655)">
<path d="M14.0625 6.5C14.0625 3.05 11.2625 0.25 7.8125 0.25C4.3625 0.25 1.5625 3.05 1.5625 6.5C1.5625 9.19375 3.26875 11.4875 5.6625 12.3625L0 23.6875H6.25L13.8562 8.0625C13.9875 7.5625 14.0625 7.04375 14.0625 6.5Z" fill="#555555"/>
<path d="M29.6875 6.5C29.6875 3.05 26.8875 0.25 23.4375 0.25C19.9875 0.25 17.1875 3.05 17.1875 6.5C17.1875 9.19375 18.8938 11.4875 21.2875 12.3625L15.625 23.6875H21.875L29.4812 8.0625C29.6125 7.5625 29.6875 7.04375 29.6875 6.5Z" fill="#555555"/>
</g>
<defs>
<clipPath id="clip0_14_8655">
<rect width="30" height="24" fill="white"/>
</clipPath>
</defs>
</svg>
